<svg width="964" height="887" viewBox="0 0 964 887" fill="none" xmlns="http://www.w3.org/2000/svg">
<path d="M102.96 715.92C102.64 715.92 102.32 715.92 102 715.92C101.68 714.96 99.12 703.12 98.96 702.16C95.28 687.44 91.12 668.88 88.08 657.84C79.12 624.72 38.48 627.44 26.32 638.96C23.28 656.72 20.08 674.32 17.04 691.92C14 710.8 9.36 730.8 6.64 749.68C0.0800001 795.28 31.6 802.32 57.52 788.24C59.12 763.28 60.56 744.24 62.16 719.76C64.08 725.04 71.28 756.72 74.96 772.08C81.52 798.48 115.28 793.68 125.68 787.12C130.32 768.56 134.64 749.84 139.12 731.12C139.92 727.92 140.4 724.56 141.2 721.2C141.52 721.36 141.84 721.36 142.16 721.36C143.12 745.84 142 752.72 144.24 771.76C146.96 797.2 181.2 803.76 198.48 781.36C196.4 763.12 194.64 747.6 192.4 729.36C190.16 710.64 186.48 679.12 184.88 667.12C180.88 635.44 147.44 623.28 121.84 640.08C120.72 643.12 119.44 646.16 118.64 649.36C113.68 670.48 108.88 691.76 103.92 712.88C103.6 714 103.28 714.96 102.96 715.92ZM270.231 702.48C270.231 680.08 271.671 674.16 269.911 656.08C267.671 633.36 228.471 623.92 211.671 642C210.871 659.44 209.591 734.64 212.631 760.4C216.471 792.4 247.351 806.48 273.591 789.52C279.191 780.56 301.431 742 305.111 736.24C305.751 735.12 306.391 734.32 307.031 733.36C307.511 733.36 307.831 733.52 308.311 733.52C307.671 753.36 307.031 758.96 307.511 768.72C308.791 793.04 336.631 806 364.151 788.08C365.751 759.44 367.831 689.04 366.231 663.12C364.151 630 324.471 628.72 306.391 639.28C298.871 652.08 284.631 678.16 272.951 699.28C272.311 700.4 271.511 701.52 270.871 702.8C270.551 702.64 270.391 702.64 270.231 702.48ZM627.636 666C623.636 627.76 585.876 628.08 570.996 641.04C569.716 665.2 569.716 716.24 570.196 744.4C554.196 744.56 540.276 744.72 537.396 744.56C537.236 712.88 536.116 675.92 535.316 664.08C532.596 624.72 484.756 633.52 475.956 641.52C475.956 658.16 475.956 727.76 475.956 743.44C463.316 743.44 452.436 743.6 446.036 743.6C446.036 736.56 445.716 665.36 444.596 657.04C440.756 627.92 393.236 633.68 386.036 641.68C381.716 674.8 381.876 731.28 385.396 760.56C388.276 784.88 400.436 793.52 431.636 795.28C435.316 795.44 541.716 797.52 588.116 794.64C625.716 792.4 628.916 767.12 628.916 750.64C629.076 723.28 629.396 681.84 627.636 666ZM703.049 692.24C703.049 690.32 703.049 689.52 703.049 688.56C703.529 674.64 703.849 676.88 703.209 657.68C702.089 626.16 657.929 626.48 645.129 642.8C642.089 673.2 643.529 744.56 647.209 771.44C651.049 800.08 690.249 800.72 704.009 788.88C703.209 779.76 703.049 770.32 703.689 766.96C704.169 763.44 708.809 756.08 712.489 750.16C720.009 765.04 724.009 773.04 727.529 779.76C744.489 813.36 782.729 796.4 788.809 775.44C782.729 759.28 767.689 735.76 756.009 713.68C754.889 711.6 754.889 710.16 756.169 708.24C766.249 691.6 768.169 690.48 776.489 672.88C789.769 645.36 765.929 627.12 743.209 631.92C737.289 641.04 724.009 659.92 717.929 669.04C713.129 676.4 708.489 683.92 703.049 692.24ZM802.976 744.56C796.096 782.16 814.656 808.08 855.456 793.2C857.696 784.72 860.416 776.4 863.296 769.36C873.856 769.68 885.536 769.04 895.936 769.52C909.056 814.96 959.616 794.48 961.856 776.4C955.616 741.52 938.336 686.16 929.536 664.24C910.496 618.16 861.056 628.56 838.496 636.24C827.776 656.88 809.536 711.12 802.976 744.56ZM869.696 725.04C872.896 711.44 876.096 698.32 878.976 685.36C879.456 685.36 879.936 685.36 880.576 685.2C883.616 698.32 886.816 711.6 890.176 725.04C883.456 725.04 876.896 725.04 869.696 725.04Z" fill="url(#paint0_linear_26_2)"/>
<path d="M166.184 847.272V869.448H169.928V881.928H165.848V873H147.944V881.928H143.912V869.448H145.976C147.448 867.4 148.664 865.176 149.624 862.776C150.616 860.344 151.352 857.816 151.832 855.192C152.344 852.536 152.616 849.896 152.648 847.272H166.184ZM156.392 850.584C156.264 852.76 155.928 855.016 155.384 857.352C154.84 859.656 154.136 861.864 153.272 863.976C152.44 866.088 151.464 867.912 150.344 869.448H162.104V850.584H156.392ZM184.907 846.792C187.115 846.792 189.003 847.272 190.571 848.232C192.171 849.192 193.387 850.552 194.219 852.312C195.083 854.04 195.515 856.072 195.515 858.408V860.952H177.899C177.963 863.864 178.699 866.088 180.107 867.624C181.547 869.128 183.547 869.88 186.107 869.88C187.739 869.88 189.179 869.736 190.427 869.448C191.707 869.128 193.019 868.68 194.363 868.104V871.8C193.051 872.376 191.755 872.792 190.475 873.048C189.195 873.336 187.675 873.48 185.915 873.48C183.483 873.48 181.323 872.984 179.435 871.992C177.579 871 176.123 869.528 175.067 867.576C174.043 865.592 173.531 863.176 173.531 860.328C173.531 857.512 173.995 855.096 174.923 853.08C175.883 851.064 177.211 849.512 178.907 848.424C180.635 847.336 182.635 846.792 184.907 846.792ZM184.859 850.248C182.843 850.248 181.243 850.904 180.059 852.216C178.907 853.496 178.219 855.288 177.995 857.592H191.099C191.099 856.12 190.875 854.84 190.427 853.752C189.979 852.664 189.291 851.816 188.363 851.208C187.467 850.568 186.299 850.248 184.859 850.248ZM219.824 850.824H211.424V873H207.248V850.824H198.944V847.272H219.824V850.824ZM234.744 873.48C232.472 873.48 230.44 873.016 228.648 872.088C226.888 871.16 225.496 869.72 224.472 867.768C223.48 865.816 222.984 863.32 222.984 860.28C222.984 857.112 223.512 854.536 224.568 852.552C225.624 850.568 227.048 849.112 228.84 848.184C230.664 847.256 232.728 846.792 235.032 846.792C236.344 846.792 237.608 846.936 238.824 847.224C240.04 847.48 241.032 847.8 241.8 848.184L240.504 851.688C239.736 851.4 238.84 851.128 237.816 850.872C236.792 850.616 235.832 850.488 234.936 850.488C233.208 850.488 231.784 850.856 230.664 851.592C229.544 852.328 228.712 853.416 228.168 854.856C227.624 856.296 227.352 858.088 227.352 860.232C227.352 862.28 227.624 864.024 228.168 865.464C228.712 866.904 229.528 867.992 230.616 868.728C231.704 869.464 233.064 869.832 234.696 869.832C236.104 869.832 237.336 869.688 238.392 869.4C239.48 869.112 240.472 868.76 241.368 868.344V872.088C240.504 872.536 239.544 872.872 238.488 873.096C237.464 873.352 236.216 873.48 234.744 873.48ZM262.702 847.272H267.31L256.318 859.656L268.222 873H263.326L251.71 859.944V873H247.486V847.272H251.71V859.752L262.702 847.272ZM276.877 862.968C276.877 863.256 276.861 863.672 276.829 864.216C276.829 864.728 276.813 865.288 276.781 865.896C276.749 866.472 276.717 867.032 276.685 867.576C276.653 868.088 276.621 868.504 276.589 868.824L290.365 847.272H295.549V873H291.613V857.832C291.613 857.32 291.613 856.648 291.613 855.816C291.645 854.984 291.677 854.168 291.709 853.368C291.741 852.536 291.773 851.912 291.805 851.496L278.125 873H272.893V847.272H276.877V862.968ZM324.568 836.616C324.44 838.216 324.04 839.56 323.368 840.648C322.728 841.736 321.768 842.552 320.488 843.096C319.208 843.64 317.544 843.912 315.496 843.912C313.416 843.912 311.736 843.64 310.456 843.096C309.208 842.552 308.296 841.752 307.72 840.696C307.144 839.608 306.792 838.248 306.664 836.616H310.6C310.76 838.344 311.208 839.512 311.944 840.12C312.712 840.696 313.928 840.984 315.592 840.984C317.064 840.984 318.216 840.68 319.048 840.072C319.912 839.432 320.424 838.28 320.584 836.616H324.568ZM307.72 862.968C307.72 863.256 307.704 863.672 307.672 864.216C307.672 864.728 307.656 865.288 307.624 865.896C307.592 866.472 307.56 867.032 307.528 867.576C307.496 868.088 307.464 868.504 307.432 868.824L321.208 847.272H326.392V873H322.456V857.832C322.456 857.32 322.456 856.648 322.456 855.816C322.488 854.984 322.52 854.168 322.552 853.368C322.584 852.536 322.616 851.912 322.648 851.496L308.968 873H303.736V847.272H307.72V862.968ZM353.851 846.792C357.019 846.792 359.563 847.896 361.483 850.104C363.435 852.312 364.411 855.64 364.411 860.088C364.411 863 363.963 865.464 363.067 867.48C362.203 869.464 360.971 870.968 359.371 871.992C357.803 872.984 355.947 873.48 353.803 873.48C352.491 873.48 351.323 873.304 350.299 872.952C349.275 872.6 348.395 872.152 347.659 871.608C346.955 871.032 346.347 870.408 345.835 869.736H345.547C345.611 870.28 345.675 870.968 345.739 871.8C345.803 872.632 345.835 873.352 345.835 873.96V884.52H341.611V847.272H345.067L345.643 850.776H345.835C346.347 850.04 346.955 849.368 347.659 848.76C348.395 848.152 349.259 847.672 350.251 847.32C351.275 846.968 352.475 846.792 353.851 846.792ZM353.083 850.344C351.355 850.344 349.963 850.68 348.907 851.352C347.851 851.992 347.083 852.968 346.603 854.28C346.123 855.592 345.867 857.256 345.835 859.272V860.088C345.835 862.2 346.059 863.992 346.507 865.464C346.955 866.936 347.707 868.056 348.763 868.824C349.851 869.592 351.323 869.976 353.179 869.976C354.747 869.976 356.027 869.544 357.019 868.68C358.043 867.816 358.795 866.648 359.275 865.176C359.787 863.672 360.043 861.96 360.043 860.04C360.043 857.096 359.467 854.744 358.315 852.984C357.195 851.224 355.451 850.344 353.083 850.344ZM380.887 846.84C384.023 846.84 386.343 847.528 387.847 848.904C389.351 850.28 390.103 852.472 390.103 855.48V873H387.031L386.215 869.352H386.023C385.287 870.28 384.519 871.064 383.719 871.704C382.951 872.312 382.055 872.76 381.031 873.048C380.039 873.336 378.823 873.48 377.383 873.48C375.847 873.48 374.455 873.208 373.207 872.664C371.991 872.12 371.031 871.288 370.327 870.168C369.623 869.016 369.271 867.576 369.271 865.848C369.271 863.288 370.279 861.32 372.295 859.944C374.311 858.536 377.415 857.768 381.607 857.64L385.975 857.496V855.96C385.975 853.816 385.511 852.328 384.583 851.496C383.655 850.664 382.343 850.248 380.647 850.248C379.303 850.248 378.023 850.456 376.807 850.872C375.591 851.256 374.455 851.704 373.398 852.216L372.103 849.048C373.223 848.44 374.551 847.928 376.087 847.512C377.623 847.064 379.223 846.84 380.887 846.84ZM382.135 860.568C378.935 860.696 376.711 861.208 375.463 862.104C374.247 863 373.639 864.264 373.639 865.896C373.639 867.336 374.071 868.392 374.935 869.064C375.831 869.736 376.967 870.072 378.343 870.072C380.519 870.072 382.327 869.48 383.767 868.296C385.207 867.08 385.927 865.224 385.927 862.728V860.424L382.135 860.568ZM404.817 846.792C406.769 846.792 408.465 847.064 409.905 847.608C411.345 848.12 412.465 848.888 413.265 849.912C414.065 850.904 414.465 852.12 414.465 853.56C414.465 855.128 414.033 856.376 413.169 857.304C412.305 858.2 411.121 858.856 409.617 859.272V859.464C410.641 859.752 411.585 860.152 412.449 860.664C413.313 861.176 414.001 861.848 414.513 862.68C415.057 863.512 415.329 864.584 415.329 865.896C415.329 867.304 414.929 868.584 414.129 869.736C413.361 870.888 412.161 871.8 410.529 872.472C408.929 873.144 406.865 873.48 404.337 873.48C403.121 873.48 401.953 873.416 400.833 873.288C399.745 873.16 398.753 872.968 397.857 872.712C396.993 872.456 396.225 872.152 395.553 871.8V868.008C396.641 868.52 397.921 868.984 399.393 869.4C400.897 869.816 402.529 870.024 404.289 870.024C405.569 870.024 406.721 869.88 407.745 869.592C408.801 869.304 409.633 868.856 410.241 868.248C410.849 867.608 411.153 866.744 411.153 865.656C411.153 864.664 410.881 863.864 410.337 863.256C409.793 862.616 408.977 862.136 407.889 861.816C406.833 861.496 405.473 861.336 403.809 861.336H400.353V857.88H403.137C405.345 857.88 407.105 857.592 408.417 857.016C409.761 856.408 410.433 855.384 410.433 853.944C410.433 852.728 409.921 851.816 408.897 851.208C407.905 850.6 406.465 850.296 404.577 850.296C403.169 850.296 401.921 850.44 400.833 850.728C399.777 850.984 398.609 851.384 397.329 851.928L395.841 848.568C397.217 847.96 398.657 847.512 400.161 847.224C401.665 846.936 403.217 846.792 404.817 846.792ZM442.268 853.752C442.268 855.352 441.788 856.6 440.828 857.496C439.868 858.392 438.636 859 437.132 859.32V859.512C438.732 859.736 440.124 860.312 441.308 861.24C442.492 862.136 443.084 863.544 443.084 865.464C443.084 866.552 442.876 867.56 442.46 868.488C442.076 869.416 441.468 870.216 440.636 870.888C439.804 871.56 438.732 872.088 437.42 872.472C436.108 872.824 434.524 873 432.668 873H421.58V847.272H432.62C434.444 847.272 436.076 847.48 437.516 847.896C438.988 848.28 440.14 848.952 440.972 849.912C441.836 850.84 442.268 852.12 442.268 853.752ZM438.716 865.464C438.716 863.992 438.156 862.936 437.036 862.296C435.916 861.656 434.268 861.336 432.092 861.336H425.804V869.592H432.188C434.3 869.592 435.916 869.288 437.036 868.68C438.156 868.04 438.716 866.968 438.716 865.464ZM437.996 854.28C437.996 853.064 437.548 852.184 436.652 851.64C435.788 851.064 434.364 850.776 432.38 850.776H425.804V857.832H431.612C433.692 857.832 435.276 857.544 436.364 856.968C437.452 856.392 437.996 855.496 437.996 854.28ZM453.22 862.968C453.22 863.256 453.204 863.672 453.172 864.216C453.172 864.728 453.156 865.288 453.124 865.896C453.092 866.472 453.06 867.032 453.028 867.576C452.996 868.088 452.964 868.504 452.932 868.824L466.708 847.272H471.892V873H467.956V857.832C467.956 857.32 467.956 856.648 467.956 855.816C467.988 854.984 468.02 854.168 468.052 853.368C468.084 852.536 468.116 851.912 468.148 851.496L454.468 873H449.236V847.272H453.22V862.968ZM500.768 853.752C500.768 855.352 500.288 856.6 499.328 857.496C498.368 858.392 497.136 859 495.632 859.32V859.512C497.232 859.736 498.624 860.312 499.808 861.24C500.992 862.136 501.584 863.544 501.584 865.464C501.584 866.552 501.376 867.56 500.96 868.488C500.576 869.416 499.968 870.216 499.136 870.888C498.304 871.56 497.232 872.088 495.92 872.472C494.608 872.824 493.024 873 491.168 873H480.08V847.272H491.12C492.944 847.272 494.576 847.48 496.016 847.896C497.488 848.28 498.64 848.952 499.472 849.912C500.336 850.84 500.768 852.12 500.768 853.752ZM497.216 865.464C497.216 863.992 496.656 862.936 495.536 862.296C494.416 861.656 492.768 861.336 490.592 861.336H484.304V869.592H490.688C492.8 869.592 494.416 869.288 495.536 868.68C496.656 868.04 497.216 866.968 497.216 865.464ZM496.496 854.28C496.496 853.064 496.048 852.184 495.152 851.64C494.288 851.064 492.864 850.776 490.88 850.776H484.304V857.832H490.112C492.192 857.832 493.776 857.544 494.864 856.968C495.952 856.392 496.496 855.496 496.496 854.28ZM517.48 846.84C520.616 846.84 522.936 847.528 524.44 848.904C525.944 850.28 526.696 852.472 526.696 855.48V873H523.624L522.808 869.352H522.616C521.88 870.28 521.112 871.064 520.312 871.704C519.544 872.312 518.648 872.76 517.624 873.048C516.632 873.336 515.416 873.48 513.976 873.48C512.44 873.48 511.048 873.208 509.8 872.664C508.584 872.12 507.624 871.288 506.92 870.168C506.216 869.016 505.864 867.576 505.864 865.848C505.864 863.288 506.872 861.32 508.888 859.944C510.904 858.536 514.008 857.768 518.2 857.64L522.568 857.496V855.96C522.568 853.816 522.104 852.328 521.176 851.496C520.248 850.664 518.936 850.248 517.24 850.248C515.896 850.248 514.616 850.456 513.4 850.872C512.184 851.256 511.048 851.704 509.992 852.216L508.696 849.048C509.816 848.44 511.144 847.928 512.68 847.512C514.216 847.064 515.816 846.84 517.48 846.84ZM518.728 860.568C515.528 860.696 513.304 861.208 512.056 862.104C510.84 863 510.232 864.264 510.232 865.896C510.232 867.336 510.664 868.392 511.528 869.064C512.424 869.736 513.56 870.072 514.936 870.072C517.112 870.072 518.92 869.48 520.36 868.296C521.8 867.08 522.52 865.224 522.52 862.728V860.424L518.728 860.568ZM568.051 860.088C568.051 862.936 567.587 865.368 566.659 867.384C565.731 869.368 564.419 870.888 562.723 871.944C561.027 872.968 559.011 873.48 556.675 873.48C554.499 873.48 552.595 873.032 550.963 872.136C549.331 871.208 548.035 869.864 547.075 868.104C546.115 866.312 545.555 864.12 545.395 861.528H538.867V873H534.643V847.272H538.867V857.976H545.443C545.667 855.544 546.259 853.512 547.219 851.88C548.211 850.216 549.507 848.952 551.107 848.088C552.739 847.224 554.627 846.792 556.771 846.792C558.979 846.792 560.931 847.32 562.627 848.376C564.323 849.4 565.651 850.904 566.611 852.888C567.571 854.84 568.051 857.24 568.051 860.088ZM549.715 860.088C549.715 862.232 549.955 864.04 550.435 865.512C550.947 866.984 551.715 868.104 552.739 868.872C553.763 869.608 555.091 869.976 556.723 869.976C558.355 869.976 559.683 869.608 560.707 868.872C561.731 868.104 562.483 866.984 562.963 865.512C563.443 864.04 563.683 862.232 563.683 860.088C563.683 857.944 563.443 856.152 562.963 854.712C562.483 853.272 561.731 852.184 560.707 851.448C559.683 850.712 558.355 850.344 556.723 850.344C555.091 850.344 553.763 850.712 552.739 851.448C551.715 852.184 550.947 853.272 550.435 854.712C549.955 856.152 549.715 857.944 549.715 860.088ZM609.616 847.272V869.496H613.36V881.88H609.136V873H574.768V847.272H578.992V869.448H590.08V847.272H594.304V869.448H605.44V847.272H609.616ZM622.252 862.968C622.252 863.256 622.236 863.672 622.204 864.216C622.204 864.728 622.188 865.288 622.156 865.896C622.124 866.472 622.092 867.032 622.06 867.576C622.028 868.088 621.996 868.504 621.964 868.824L635.74 847.272H640.924V873H636.988V857.832C636.988 857.32 636.988 856.648 636.988 855.816C637.02 854.984 637.052 854.168 637.084 853.368C637.116 852.536 637.148 851.912 637.18 851.496L623.5 873H618.268V847.272H622.252V862.968ZM669.943 836.616C669.815 838.216 669.415 839.56 668.743 840.648C668.103 841.736 667.143 842.552 665.863 843.096C664.583 843.64 662.919 843.912 660.871 843.912C658.791 843.912 657.111 843.64 655.831 843.096C654.583 842.552 653.671 841.752 653.095 840.696C652.519 839.608 652.167 838.248 652.039 836.616H655.975C656.135 838.344 656.583 839.512 657.319 840.12C658.087 840.696 659.303 840.984 660.967 840.984C662.439 840.984 663.591 840.68 664.423 840.072C665.287 839.432 665.799 838.28 665.959 836.616H669.943ZM653.095 862.968C653.095 863.256 653.079 863.672 653.047 864.216C653.047 864.728 653.031 865.288 652.999 865.896C652.967 866.472 652.935 867.032 652.903 867.576C652.871 868.088 652.839 868.504 652.807 868.824L666.583 847.272H671.767V873H667.831V857.832C667.831 857.32 667.831 856.648 667.831 855.816C667.863 854.984 667.895 854.168 667.927 853.368C667.959 852.536 667.991 851.912 668.023 851.496L654.343 873H649.111V847.272H653.095V862.968ZM712.378 881.928H708.25V873H686.986V847.272H691.21V869.448H704.506V847.272H708.73V869.496H712.378V881.928ZM727.25 846.792C729.458 846.792 731.346 847.272 732.914 848.232C734.514 849.192 735.73 850.552 736.562 852.312C737.426 854.04 737.858 856.072 737.858 858.408V860.952H720.242C720.306 863.864 721.042 866.088 722.45 867.624C723.89 869.128 725.89 869.88 728.45 869.88C730.082 869.88 731.522 869.736 732.77 869.448C734.05 869.128 735.362 868.68 736.706 868.104V871.8C735.394 872.376 734.098 872.792 732.818 873.048C731.538 873.336 730.018 873.48 728.258 873.48C725.826 873.48 723.666 872.984 721.778 871.992C719.922 871 718.466 869.528 717.41 867.576C716.386 865.592 715.874 863.176 715.874 860.328C715.874 857.512 716.338 855.096 717.266 853.08C718.226 851.064 719.554 849.512 721.25 848.424C722.978 847.336 724.978 846.792 727.25 846.792ZM727.202 850.248C725.186 850.248 723.586 850.904 722.402 852.216C721.25 853.496 720.562 855.288 720.338 857.592H733.442C733.442 856.12 733.218 854.84 732.77 853.752C732.322 852.664 731.634 851.816 730.706 851.208C729.81 850.568 728.642 850.248 727.202 850.248ZM748.632 847.272V857.976H762.6V847.272H766.824V873H762.6V861.528H748.632V873H744.408V847.272H748.632ZM792.731 850.824H784.331V873H780.155V850.824H771.851V847.272H792.731V850.824ZM810.039 846.792C813.207 846.792 815.751 847.896 817.671 850.104C819.623 852.312 820.599 855.64 820.599 860.088C820.599 863 820.151 865.464 819.255 867.48C818.391 869.464 817.159 870.968 815.559 871.992C813.991 872.984 812.135 873.48 809.991 873.48C808.679 873.48 807.511 873.304 806.487 872.952C805.463 872.6 804.583 872.152 803.847 871.608C803.143 871.032 802.535 870.408 802.023 869.736H801.735C801.799 870.28 801.863 870.968 801.927 871.8C801.991 872.632 802.023 873.352 802.023 873.96V884.52H797.799V847.272H801.255L801.831 850.776H802.023C802.535 850.04 803.143 849.368 803.847 848.76C804.583 848.152 805.447 847.672 806.439 847.32C807.463 846.968 808.663 846.792 810.039 846.792ZM809.271 850.344C807.543 850.344 806.151 850.68 805.095 851.352C804.039 851.992 803.271 852.968 802.791 854.28C802.311 855.592 802.055 857.256 802.023 859.272V860.088C802.023 862.2 802.247 863.992 802.695 865.464C803.143 866.936 803.895 868.056 804.951 868.824C806.039 869.592 807.511 869.976 809.367 869.976C810.935 869.976 812.215 869.544 813.207 868.68C814.231 867.816 814.983 866.648 815.463 865.176C815.975 863.672 816.231 861.96 816.231 860.04C816.231 857.096 815.655 854.744 814.503 852.984C813.383 851.224 811.639 850.344 809.271 850.344Z" fill="black"/>
<path d="M380.358 550.537C389.808 585.21 481.717 584.634 495.438 545.552C504.63 519.357 519.997 420.223 458.469 378.315C464.476 432.378 375.2 503.567 380.358 550.537Z" fill="#B17F4A"/>
<g style="mix-blend-mode:multiply">
<path d="M478.531 420.463C478.03 421.966 477.398 423.421 476.644 424.814C480.075 432.615 451.979 458.747 459.403 462.258C493.99 478.615 512.085 528.398 464.102 571.168C478.95 566.4 491.091 557.942 495.428 545.624C503.03 523.946 514.927 451.931 483.593 404.138C481.98 409.532 480.303 414.996 478.531 420.463Z" fill="#E4D5C1"/>
</g>
<g style="mix-blend-mode:soft-light" opacity="0.4">
<path d="M428.056 568.059C428.056 568.059 430.263 562.075 410.824 551.57C389.483 540.043 404.062 508.642 402.077 511.111C385.4 532.529 385.169 550.919 396.106 558.438C407.042 565.956 428.056 568.059 428.056 568.059Z" fill="#FACCC3"/>
</g>
<path d="M698.831 455.117C719.246 484.693 659.557 554.584 620.818 539.873C594.867 530.015 509.175 477.855 516.801 403.803C554.258 443.247 666.25 420.895 698.831 455.117Z" fill="#B17F4A"/>
<g style="mix-blend-mode:multiply">
<path d="M536.038 446.295C537.505 446.878 539.019 447.331 540.565 447.65C544.316 455.302 582.423 450.675 580.304 458.608C570.512 495.594 596.906 541.519 660.534 532.41C647.318 540.687 633.041 544.522 620.813 539.891C599.34 531.727 536.633 494.404 520.279 439.635C525.525 441.908 530.783 444.149 536.038 446.295Z" fill="#DDC5AF"/>
</g>
<g style="mix-blend-mode:soft-light" opacity="0.4">
<path d="M681.46 502.871C681.46 502.871 675.462 500.701 679.979 479.074C684.925 455.329 651.504 446.225 654.671 446.3C681.796 447.358 696.02 459.042 694.701 472.244C693.382 485.445 681.46 502.871 681.46 502.871Z" fill="#FACCC3"/>
</g>
<path d="M275.511 355.121C260.131 336.253 277.637 298.609 294.365 291.438C319.867 280.487 404.627 305.751 423.667 377.729C374.687 354.09 318.076 375.638 275.511 355.121Z" fill="#B17F4A"/>
<g style="mix-blend-mode:multiply">
<path d="M419.834 366.101C403.044 342.748 380.62 321.047 351.724 315.239C336.28 312.122 315.799 311.648 298.092 316.651C291.281 320.434 285.032 325.149 279.524 330.659C276.776 333.441 273.4 335.522 269.679 336.726C269.423 343.398 271.502 349.95 275.558 355.255C318.124 375.772 374.734 354.224 423.714 377.863C422.644 373.872 421.349 369.945 419.834 366.101V366.101Z" fill="#D6C9B6"/>
</g>
<path d="M686.603 303.232C696.644 281.039 670.087 249.147 652.08 246.495C624.625 242.434 549.153 288.548 549.167 362.984C590.465 327.633 650.705 333.977 686.603 303.232Z" fill="#B17F4A"/>
<g style="mix-blend-mode:multiply">
<path d="M549.897 350.796C560.152 323.925 576.277 297.19 602.724 284.198C616.856 277.233 636.533 271.533 654.93 271.839C662.498 273.71 669.766 276.628 676.526 280.51C679.877 282.46 683.64 283.592 687.51 283.813C689.465 290.198 689.132 297.064 686.569 303.229C650.705 333.977 590.465 327.633 549.255 363.008C549.24 358.928 549.454 354.851 549.897 350.796V350.796Z" fill="#D6C9B6"/>
</g>
<path d="M639.525 389.594C649.093 447.11 591.597 478.329 518.203 490.539C444.809 502.748 383.161 491.349 373.593 433.833C364.024 376.317 402.686 240.924 476.115 228.708C549.543 216.493 629.957 332.078 639.525 389.594Z" fill="#B17F4A"/>
<g style="mix-blend-mode:multiply">
<path d="M544.833 469.845C471.404 482.061 409.79 470.656 400.222 413.14C392.953 369.445 413.531 280.817 456.031 235.363C395.723 266.047 364.937 381.808 373.591 433.834C383.159 491.349 444.756 502.757 518.202 490.539C563.518 483.001 602.602 468.259 623.778 444.604C602.536 456.556 575.037 464.821 544.833 469.845Z" fill="#E4D5C1"/>
</g>
<path d="M512.559 98.0202C514.386 106.831 518.784 114.903 525.198 121.214C531.612 127.526 539.753 131.793 548.592 133.478C557.432 135.162 566.572 134.187 574.857 130.677C583.143 127.167 590.201 121.278 595.14 113.756C600.079 106.234 602.676 97.4168 602.604 88.4188C602.531 79.4207 599.792 70.6461 594.733 63.2048C589.674 55.7634 582.521 49.9894 574.18 46.6129C565.84 43.2364 556.685 42.4092 547.874 44.2357C536.058 46.685 525.7 53.7275 519.077 63.8141C512.455 73.9006 510.11 86.2049 512.559 98.0202V98.0202Z" fill="#B17F4A"/>
<path d="M535.001 93.3682C535.908 97.7412 538.091 101.747 541.274 104.88C544.457 108.012 548.498 110.13 552.885 110.966C557.272 111.802 561.809 111.318 565.921 109.576C570.033 107.834 573.536 104.911 575.987 101.178C578.438 97.445 579.728 93.0687 579.692 88.6029C579.656 84.137 578.296 79.7821 575.785 76.0889C573.274 72.3957 569.724 69.53 565.585 67.8542C561.445 66.1784 556.901 65.7679 552.528 66.6744C546.664 67.89 541.523 71.3853 538.236 76.3913C534.949 81.3974 533.786 87.5042 535.001 93.3682Z" fill="#683C11"/>
<path d="M308.688 140.282C310.515 149.093 314.913 157.165 321.327 163.476C327.741 169.787 335.882 174.055 344.721 175.739C353.561 177.424 362.701 176.449 370.986 172.939C379.272 169.428 386.33 163.54 391.269 156.018C396.208 148.496 398.805 139.679 398.733 130.68C398.66 121.682 395.921 112.908 390.862 105.466C385.803 98.0251 378.65 92.2511 370.309 88.8746C361.968 85.4982 352.814 84.6709 344.003 86.4974C332.187 88.9467 321.829 95.9892 315.206 106.076C308.584 116.162 306.239 128.467 308.688 140.282V140.282Z" fill="#B17F4A"/>
<path d="M331.181 135.62C332.088 139.993 334.271 143.999 337.454 147.132C340.637 150.264 344.678 152.382 349.065 153.218C353.452 154.054 357.988 153.57 362.1 151.828C366.213 150.086 369.716 147.163 372.167 143.43C374.618 139.697 375.907 135.321 375.871 130.855C375.835 126.389 374.476 122.034 371.965 118.341C369.454 114.648 365.904 111.782 361.764 110.106C357.625 108.43 353.081 108.02 348.708 108.926C342.844 110.142 337.703 113.637 334.416 118.643C331.129 123.649 329.965 129.756 331.181 135.62Z" fill="#683C11"/>
<path d="M601.743 154.902C614.36 215.766 565.506 277.356 492.6 292.469C419.695 307.582 350.384 270.488 337.767 209.624C325.15 148.76 374.021 87.1668 446.909 72.0572C519.798 56.9476 589.126 94.0382 601.743 154.902Z" fill="#B17F4A"/>
<path d="M561.133 224.4C567.047 252.929 536.355 283.399 492.601 292.469C448.847 301.539 408.572 285.781 402.658 257.252C396.744 228.723 427.429 198.218 471.183 189.148C514.937 180.078 555.215 195.854 561.133 224.4Z" fill="#F8B894"/>
<path d="M520.34 162.792C520.883 165.46 520.622 168.23 519.592 170.751C518.562 173.272 516.807 175.431 514.551 176.956C512.294 178.481 509.636 179.303 506.913 179.318C504.189 179.334 501.523 178.542 499.249 177.043C496.975 175.544 495.197 173.404 494.138 170.895C493.079 168.386 492.787 165.619 493.3 162.944C493.812 160.27 495.105 157.806 497.016 155.866C498.928 153.926 501.371 152.595 504.037 152.042C505.814 151.677 507.645 151.664 509.426 152.007C511.207 152.349 512.903 153.039 514.417 154.038C515.931 155.036 517.234 156.323 518.25 157.825C519.266 159.327 519.977 161.015 520.34 162.792V162.792Z" fill="#303D44"/>
<path d="M516.366 171.212C504.948 173.579 497.017 169.268 493.338 162.922C492.892 165.16 493.006 167.473 493.67 169.656C494.334 171.84 495.527 173.825 497.143 175.436C498.759 177.048 500.748 178.235 502.933 178.892C505.118 179.549 507.432 179.657 509.669 179.204C512 178.716 514.163 177.63 515.946 176.051C517.729 174.473 519.071 172.458 519.838 170.203C518.703 170.611 517.543 170.948 516.366 171.212V171.212Z" fill="#1F292F"/>
<path d="M513.007 156.066C513.384 156.914 513.489 157.859 513.307 158.77C513.125 159.68 512.665 160.512 511.991 161.15C511.316 161.788 510.46 162.202 509.54 162.333C508.621 162.464 507.683 162.307 506.857 161.882C506.031 161.458 505.357 160.788 504.927 159.965C504.498 159.141 504.335 158.205 504.46 157.284C504.585 156.364 504.993 155.506 505.627 154.827C506.261 154.148 507.09 153.683 507.999 153.495C509.004 153.185 510.091 153.28 511.027 153.76C511.962 154.241 512.673 155.068 513.007 156.066Z" fill="white"/>
<path d="M440.723 179.295C441.266 181.964 441.005 184.734 439.975 187.255C438.944 189.776 437.19 191.935 434.934 193.46C432.677 194.985 430.019 195.807 427.296 195.822C424.572 195.838 421.905 195.046 419.632 193.547C417.358 192.047 415.579 189.908 414.521 187.399C413.462 184.89 413.17 182.123 413.682 179.448C414.195 176.773 415.488 174.31 417.399 172.37C419.31 170.43 421.754 169.099 424.42 168.546C426.197 168.18 428.028 168.168 429.809 168.511C431.59 168.853 433.286 169.543 434.8 170.541C436.314 171.54 437.617 172.827 438.633 174.329C439.649 175.831 440.359 177.519 440.723 179.295V179.295Z" fill="#303D44"/>
<path d="M436.746 187.716C425.345 190.08 417.397 185.773 413.735 179.422C413.356 181.255 413.361 183.146 413.749 184.977C414.351 187.933 415.907 190.608 418.179 192.592C420.452 194.575 423.313 195.756 426.323 195.953C429.332 196.15 432.323 195.352 434.834 193.681C437.345 192.01 439.237 189.56 440.218 186.708C439.083 187.116 437.923 187.453 436.746 187.716V187.716Z" fill="#1F292F"/>
<path d="M433.39 172.57C433.763 173.415 433.864 174.355 433.681 175.261C433.498 176.166 433.039 176.993 432.366 177.627C431.694 178.26 430.842 178.67 429.927 178.8C429.013 178.93 428.08 178.773 427.258 178.351C426.437 177.929 425.766 177.263 425.338 176.444C424.91 175.625 424.746 174.694 424.87 173.778C424.993 172.863 425.397 172.008 426.026 171.331C426.655 170.654 427.478 170.189 428.382 169.999C429.387 169.689 430.474 169.784 431.409 170.265C432.345 170.745 433.056 171.573 433.39 172.57V172.57Z" fill="white"/>
<path d="M508.103 231.804C507.993 232.75 507.774 233.679 507.451 234.574C507.106 235.621 506.671 236.635 506.148 237.605C505.492 238.896 504.713 240.122 503.821 241.263C503.321 241.927 502.784 242.562 502.213 243.166C501.621 243.836 500.978 244.458 500.289 245.027C499.601 245.678 498.87 246.281 498.101 246.834C497.32 247.436 496.499 247.986 495.645 248.479L494.327 249.258L492.932 249.926C492.008 250.408 491.051 250.824 490.068 251.169C489.087 251.561 488.084 251.896 487.064 252.171L483.861 252.997L480.891 253.469C479.939 253.666 478.744 253.643 477.698 253.734C476.642 253.823 475.58 253.826 474.524 253.742L472.995 253.68L471.476 253.49C470.488 253.394 469.51 253.216 468.551 252.959C467.631 252.748 466.723 252.491 465.829 252.188C464.973 251.923 464.135 251.603 463.32 251.229C462.559 250.907 461.819 250.536 461.105 250.118C459.828 249.442 458.626 248.632 457.519 247.704C456.653 247.016 455.848 246.252 455.116 245.423C454.455 244.734 453.878 243.97 453.398 243.145C454.162 243.675 454.956 244.161 455.775 244.601C456.544 245.001 457.49 245.472 458.578 245.932C459.13 246.161 459.707 246.42 460.343 246.613C460.978 246.868 461.626 247.089 462.284 247.275C462.993 247.509 463.718 247.69 464.454 247.818C465.197 248.007 465.971 248.171 466.772 248.294C467.592 248.443 468.42 248.542 469.252 248.592L470.538 248.704L471.841 248.722L473.169 248.772L474.526 248.707C475.431 248.699 476.334 248.638 477.232 248.525C478.131 248.339 479.008 248.392 479.977 248.191L482.957 247.681L485.621 247.129C486.556 246.935 487.406 246.597 488.308 246.337C489.211 246.078 489.992 245.754 490.897 245.422C491.739 245.116 492.564 244.764 493.367 244.368C494.163 244.024 494.937 243.634 495.688 243.202C496.432 242.826 497.152 242.405 497.845 241.943C498.535 241.529 499.176 241.053 499.786 240.602C500.405 240.18 500.997 239.72 501.558 239.224C502.133 238.78 502.612 238.302 503.08 237.862C503.548 237.422 504.013 236.965 504.412 236.539C505.241 235.664 505.873 234.883 506.467 234.182C507.064 233.426 507.61 232.632 508.103 231.804Z" fill="#683C11"/>
<path d="M483.398 250.332L476.648 217.771" stroke="#683C11" stroke-width="3.05" stroke-miterlimit="10"/>
<path d="M499.148 186.944C500.077 191.424 486.304 217.773 477.663 220.394C469.021 223.016 445.579 202.722 444.65 198.241C443.722 193.76 455.162 187.581 470.214 184.461C485.265 181.341 498.215 182.445 499.148 186.944Z" fill="#683C11"/>
<g style="mix-blend-mode:multiply">
<path d="M484.388 210.808C467.848 214.237 457.585 201.46 456.863 188.401C449.022 191.488 444.024 195.231 444.648 198.241C445.577 202.722 469.022 223.034 477.66 220.395C480.969 219.384 485.051 214.875 488.758 209.433C487.347 210.025 485.884 210.485 484.388 210.808V210.808Z" fill="#D5B9BB"/>
</g>
<g style="mix-blend-mode:soft-light" opacity="0.3">
<path d="M492.78 188.443C493.415 191.505 487.845 195.276 480.32 196.836C472.794 198.397 466.184 197.15 465.549 194.088C464.914 191.026 470.498 187.234 478.006 185.677C485.515 184.121 492.138 185.346 492.78 188.443Z" fill="#FACCC3"/>
</g>
<g style="mix-blend-mode:soft-light" opacity="0.4">
<path d="M549.294 94.4285C549.929 97.4908 530.396 89.6127 475.283 86.7104C462.037 86.0097 436.211 88.9455 435.583 85.9179C434.956 82.8903 444.739 76.5497 457.958 75.4695C518.619 70.4912 548.656 91.349 549.294 94.4285Z" fill="#FACCC3"/>
</g>
<g style="mix-blend-mode:multiply">
<path d="M494.087 263.255C421.199 278.364 351.871 241.274 339.254 180.41C338.583 177.174 338.131 173.948 337.786 170.718C335.122 183.549 335.116 196.791 337.767 209.625C350.384 270.489 419.712 307.579 492.601 292.47C561.631 278.16 609.082 222.166 603.224 164.574C593.718 210.898 551.318 251.391 494.087 263.255Z" fill="#E4D5C1"/>
</g>
<path d="M487.398 308.704C489.66 322.298 464.003 339.051 448.335 341.657C439.951 343.052 428.199 322.582 435.857 318.442C425.966 310.881 431.215 292.795 435.619 291.167C448.36 286.468 485.137 295.109 487.398 308.704Z" fill="#E84341"/>
<g style="mix-blend-mode:multiply">
<path d="M451.13 334.762C460.727 334.956 479.836 326.547 486.509 315.407C481.715 327.291 461.495 339.468 448.336 341.657C439.953 343.051 428.201 322.581 435.859 318.441C432.947 316.114 431.042 312.756 430.537 309.063C433.389 312.57 436.916 315.468 440.91 317.583C440.91 317.583 441.509 334.643 451.13 334.762Z" fill="#D6C3CE"/>
</g>
<path d="M479.875 301.914C479.875 301.914 453.852 300.529 447.267 298.956C437.456 296.612 436.792 292.62 436.792 292.62C436.792 292.62 439.944 290.036 453.334 292.251C471.651 295.222 479.875 301.914 479.875 301.914Z" fill="#932D27"/>
<path d="M483.941 310.425C484.045 311.052 478.741 312.436 472.1 313.541C465.46 314.646 459.993 315.053 459.889 314.426C459.784 313.799 465.089 312.415 471.729 311.31C478.37 310.205 483.839 309.815 483.941 310.425Z" fill="#C13A35"/>
<path d="M483.63 308.56C483.572 309.179 479.221 309.293 473.894 308.818C468.567 308.343 464.297 307.442 464.355 306.823C464.413 306.204 468.765 306.089 474.092 306.564C479.419 307.039 483.686 307.924 483.63 308.56Z" fill="#C13A35"/>
<g style="mix-blend-mode:soft-light">
<path d="M471.518 302.73C471.518 302.73 453.027 303.227 447.732 302.621C436.497 301.302 435.784 294.113 435.784 294.113C435.784 294.113 437.926 299.13 447.927 300.35C454.195 301.098 471.518 302.73 471.518 302.73Z" fill="#F8CDE2"/>
</g>
<path d="M484.244 312.238C483.989 311.671 479.835 312.971 474.948 315.145C470.062 317.32 466.314 319.555 466.57 320.122C466.825 320.688 470.979 319.388 475.863 317.196C480.746 315.005 484.502 312.822 484.244 312.238Z" fill="#C13A35"/>
<path d="M487.398 308.703C489.66 322.298 519.376 329.838 535.044 327.232C543.428 325.837 547.919 302.665 539.334 301.227C546.227 290.874 535.423 275.459 530.712 275.347C517.153 275.023 485.137 295.108 487.398 308.703Z" fill="#E84341"/>
<g style="mix-blend-mode:multiply">
<path d="M530.188 321.611C521.171 324.902 500.368 323.133 490.448 314.753C498.831 324.445 521.905 329.419 535.063 327.23C543.447 325.835 547.939 302.663 539.353 301.226C541.354 298.081 542.07 294.287 541.352 290.63C539.792 294.872 537.392 298.756 534.296 302.049C534.296 302.049 539.217 318.389 530.188 321.611Z" fill="#D6C3CE"/>
</g>
<path d="M492.336 299.841C492.336 299.841 516.508 290.106 522.211 286.488C530.735 281.094 530.072 277.103 530.072 277.103C530.072 277.103 526.252 275.678 514.318 282.105C497.933 290.849 492.336 299.841 492.336 299.841Z" fill="#932D27"/>
<path d="M491.244 309.209C491.349 309.837 496.815 309.429 503.456 308.324C510.096 307.219 515.401 305.835 515.296 305.208C515.192 304.581 509.725 304.988 503.085 306.093C496.444 307.198 491.143 308.599 491.244 309.209Z" fill="#C13A35"/>
<path d="M490.933 307.346C491.188 307.913 495.342 306.613 500.229 304.438C505.115 302.264 508.863 300.029 508.607 299.462C508.352 298.896 504.18 300.199 499.311 302.37C494.442 304.541 490.674 306.762 490.933 307.346Z" fill="#C13A35"/>
<g style="mix-blend-mode:soft-light">
<path d="M500.556 297.898C500.556 297.898 518.213 292.382 523.044 290.091C533.229 285.209 531.576 278.176 531.576 278.176C531.576 278.176 531.156 283.619 522.106 288.009C516.349 290.758 500.556 297.898 500.556 297.898Z" fill="#F8CDE2"/>
</g>
<path d="M491.547 311.022C491.605 310.403 495.956 310.289 501.283 310.764C506.61 311.239 510.88 312.14 510.822 312.759C510.763 313.378 506.395 313.496 501.082 313C495.77 312.505 491.491 311.658 491.547 311.022Z" fill="#C13A35"/>
<path d="M496.655 307.164C496.91 308.694 496.705 310.266 496.066 311.68C495.427 313.094 494.384 314.287 493.067 315.108C491.751 315.929 490.22 316.341 488.669 316.292C487.119 316.243 485.617 315.736 484.355 314.833C483.093 313.931 482.126 312.675 481.578 311.223C481.03 309.772 480.924 308.191 481.274 306.679C481.625 305.168 482.416 303.794 483.547 302.732C484.678 301.67 486.099 300.967 487.629 300.713C489.681 300.371 491.785 300.859 493.478 302.069C495.171 303.279 496.314 305.111 496.655 307.164Z" fill="#E84341"/>
<g style="mix-blend-mode:multiply">
<path d="M493.415 302.025C493.706 302.648 493.911 303.306 494.028 303.983C494.282 305.508 494.08 307.073 493.447 308.483C492.815 309.893 491.78 311.085 490.472 311.909C489.165 312.733 487.643 313.153 486.098 313.115C484.553 313.077 483.053 312.584 481.788 311.697C482.285 312.798 483.031 313.769 483.966 314.535C484.9 315.3 485.999 315.84 487.177 316.111C488.354 316.382 489.578 316.377 490.754 316.097C491.929 315.817 493.024 315.269 493.953 314.497C494.882 313.724 495.62 312.747 496.109 311.642C496.598 310.538 496.826 309.335 496.774 308.128C496.722 306.921 496.391 305.742 495.809 304.683C495.226 303.625 494.407 302.715 493.415 302.025V302.025Z" fill="#D6C3CE"/>
</g>
<g style="mix-blend-mode:soft-light">
<path d="M492.258 304.223C492.703 304.847 489.046 304.077 486.591 305.9C484.136 307.723 483.789 311.453 483.33 310.849C482.871 310.244 482.446 305.533 484.953 303.701C487.46 301.868 491.817 303.615 492.258 304.223Z" fill="#F8CDE2"/>
</g>
<path d="M287.856 218.787L284.033 215.096C284.033 215.096 269.863 220.447 263.77 226.013L252.896 212.136C252.896 212.136 227.608 236.064 234.226 281.804L231.554 283.767C231.554 283.767 212.483 251.846 183.9 255.135L266.75 327.949L318.554 256.874L287.856 218.787Z" fill="#EBEBEB"/>
<path d="M307.941 227.006C306.921 226.85 292.221 216.277 292.221 216.277C292.221 216.277 248.169 238.687 237.521 281.17C237.521 281.17 240.588 236.152 284.087 215.033C284.087 215.033 243.75 224.469 234.81 280.756C231.896 256.387 238.383 231.825 252.95 212.074C252.95 212.074 228.285 237.045 232.462 282.46C232.462 282.46 215.57 252.105 183.886 254.896C183.886 254.896 218.992 259.198 230.384 284.727C230.384 284.727 201.666 258.042 178.424 267.816L229.339 298.536L252.075 290.677L307.941 227.006Z" fill="#FAF7D5"/>
<path d="M239.599 286.207C239.599 286.207 258.079 233.917 305.802 220.227L383.357 278.975C383.357 278.975 322.278 328.046 313.319 346.929L239.599 286.207Z" fill="#38E154"/>
<g style="mix-blend-mode:multiply" opacity="0.54">
<path d="M247.422 280.479C247.422 280.479 274.244 233.189 305.55 225.123L375.176 279.574C375.176 279.574 330.913 307.549 312.65 337.176L247.422 280.479Z" fill="#38E154"/>
</g>
<path d="M227.515 287.208L169.258 264.33L269.703 341.97L303.731 353.317L227.515 287.208Z" fill="#38E154"/>
<g style="mix-blend-mode:multiply" opacity="0.54">
<path d="M227.137 289.689L185.902 274.441L269.234 338.839L292.283 346.609L227.137 289.689Z" fill="#38E154"/>
</g>
<path d="M303.731 353.318L292.929 343.934L290.5 341.831L240.241 298.287L239.028 297.224L228.554 288.175C232.661 290.321 240.787 282.931 240.787 282.931L247.563 288.71L249.217 290.149L301.117 333.661L302.817 335.106L314.516 344.983C314.74 357.634 303.731 353.318 303.731 353.318Z" fill="#20D336"/>
<path d="M302.726 335.091C302.093 337.339 300.838 339.362 299.105 340.926C297.371 342.491 295.231 343.533 292.931 343.933L290.501 341.831C292.753 341.332 294.865 340.34 296.686 338.924C298.506 337.508 299.989 335.705 301.026 333.646L302.726 335.091Z" fill="#F2CF81"/>
<path d="M249.358 290.005C248.788 292.101 247.636 293.993 246.034 295.461C244.433 296.929 242.448 297.912 240.311 298.298L239.098 297.235C241.211 296.764 243.145 295.697 244.67 294.161C246.195 292.624 247.248 290.683 247.704 288.567L249.358 290.005Z" fill="#F2CF81"/>
<path d="M778.648 417.782C806.983 413.268 826.294 386.64 821.781 358.305C817.268 329.97 790.64 310.659 762.305 315.172C733.97 319.685 714.659 346.314 719.172 374.649C723.685 402.983 750.313 422.295 778.648 417.782Z" fill="url(#paint1_radial_26_2)"/>
<path d="M767.801 333.125C742.795 352.836 736.07 381.593 739.346 408.065C748.761 415.128 760.295 418.785 772.059 418.437C783.824 418.09 795.121 413.757 804.102 406.15C803.645 347.042 767.801 333.125 767.801 333.125Z" fill="url(#paint2_radial_26_2)"/>
<path d="M755.429 316.742C748.382 318.869 741.868 322.472 736.321 327.311C730.774 332.15 726.321 338.115 723.258 344.809C738.675 335.542 753.523 331.648 767.802 333.125C764.302 325.718 760.206 320.191 755.429 316.742Z" fill="url(#paint3_radial_26_2)"/>
<path d="M820.234 351.551C817.596 342.771 812.681 334.847 805.988 328.581C799.296 322.316 791.065 317.934 782.131 315.879C776.638 318.931 771.835 324.562 767.645 332.443C793.159 328.563 808.525 337.789 820.243 351.689C820.236 351.643 820.233 351.597 820.234 351.551Z" fill="url(#paint4_radial_26_2)"/>
<path style="mix-blend-mode:multiply" opacity="0.8" d="M766.473 323.211C773.19 322.831 778.924 327.608 779.278 333.885C779.631 340.163 774.475 345.543 767.758 345.957C761.041 346.371 755.307 341.525 754.962 335.256C754.617 328.988 759.756 323.59 766.473 323.211Z" fill="url(#paint5_radial_26_2)"/>
<path d="M768.76 341.178C763.216 341.851 758.283 338.755 757.74 334.28C757.197 329.805 761.258 325.658 766.803 324.959C772.347 324.261 777.279 327.382 777.822 331.857C778.366 336.332 774.339 340.514 768.76 341.178Z" fill="url(#paint6_radial_26_2)"/>
<path style="mix-blend-mode:multiply" d="M778.648 417.782C806.983 413.268 826.294 386.64 821.781 358.305C817.268 329.97 790.64 310.659 762.305 315.172C733.97 319.685 714.659 346.314 719.172 374.649C723.685 402.983 750.313 422.295 778.648 417.782Z" fill="url(#paint7_radial_26_2)"/>
<path style="mix-blend-mode:screen" opacity="0.4" d="M749.229 323.233C758.205 323.026 765.31 327.949 765.163 334.227C765.017 340.504 757.558 345.772 748.59 345.979C739.623 346.186 732.544 341.263 732.682 334.977C732.82 328.691 740.304 323.431 749.229 323.233Z" fill="url(#paint8_radial_26_2)"/>
<path d="M661.791 185.283C661.697 184.874 661.594 184.424 661.487 183.974C658.247 169.954 655.026 155.935 651.734 141.929C651.417 140.592 651.603 139.979 652.934 139.353C664.713 133.782 676.455 128.151 688.211 122.534C688.603 122.348 689.014 122.19 689.453 122C689.535 122.178 689.605 122.361 689.663 122.548C691.474 130.424 693.286 138.305 695.097 146.191C696.227 151.074 697.385 155.939 698.524 160.841C699.588 165.423 700.578 170.028 701.727 174.592C702.446 177.433 701.727 179.796 699.808 181.889C696.166 185.844 689.289 187.302 684.401 185.139C679.611 183.045 678.416 178.055 681.983 174.253C685.923 170.075 690.853 168.914 696.423 170.284C696.806 170.377 697.179 170.516 697.562 170.627C697.595 170.627 697.641 170.595 697.777 170.534C695.106 158.971 692.426 147.388 689.7 135.606L681.46 139.497C677.753 141.247 674.041 142.983 670.339 144.752C666.165 146.743 662.024 148.795 657.831 150.749C656.87 151.213 657.001 151.771 657.183 152.537C659.673 163.158 662.153 173.782 664.624 184.41C665.026 186.123 665.362 187.855 665.829 189.549C666.627 192.45 665.801 194.925 663.691 196.884C659.489 200.774 654.54 201.99 649.087 200.175C643.634 198.36 642.28 192.747 646.421 188.676C650.324 184.856 655.086 183.797 660.39 185.069C660.773 185.162 661.146 185.292 661.529 185.399C661.548 185.427 661.594 185.385 661.791 185.283Z" fill="#F23218"/>
<path d="M701.026 86.9692C701.114 86.6037 701.212 86.2008 701.306 85.796C704.32 73.236 707.348 60.6835 710.315 48.1139C710.595 46.9127 710.992 46.496 712.315 46.5286C724.041 46.7988 735.761 47.0056 747.487 47.2292C747.878 47.238 748.272 47.2767 748.702 47.3006C748.697 47.4764 748.68 47.6516 748.651 47.825C746.951 54.8778 745.249 61.9343 743.545 68.9946C742.496 73.3702 741.478 77.7423 740.429 82.1367C739.449 86.2438 738.399 90.3394 737.493 94.4655C736.933 97.0359 735.406 98.6434 733.02 99.5517C728.499 101.261 722.373 99.6623 719.302 95.9574C716.282 92.3479 717.321 87.8601 721.72 86.2439C726.571 84.4761 731.01 85.5294 734.948 88.8715C735.219 89.1001 735.464 89.3623 735.728 89.6059C735.755 89.6191 735.805 89.6118 735.938 89.6178C738.426 79.2587 740.913 68.8809 743.443 58.324L735.242 58.1295C731.553 58.042 727.866 57.9415 724.174 57.8708C720.012 57.7892 715.852 57.7691 711.689 57.6502C710.728 57.6356 710.61 58.1355 710.45 58.8238C708.195 68.3537 705.931 77.8823 703.659 87.4096C703.295 88.9465 702.872 90.472 702.568 92.0203C702.047 94.6711 700.389 96.3249 697.903 97.048C692.956 98.4794 688.481 97.4634 684.815 93.8106C681.15 90.1577 682.31 85.1067 687.28 83.5055C691.958 82.0097 696.219 83.0773 699.983 86.2339C700.254 86.4625 700.503 86.7173 700.768 86.9572C700.772 86.987 700.827 86.9723 701.026 86.9692Z" fill="#38E152"/>
<path d="M745.255 155.33C749.143 140.304 753.021 125.317 756.887 110.37C758.267 115.636 760.532 120.469 762.897 125.255C764.346 128.196 766.051 131.019 767.449 133.986C768.92 137.101 769.895 140.377 769.23 143.908C768.67 146.866 766.895 148.889 764.26 150.267C766.729 146.909 766.805 143.436 764.828 139.904C764.208 138.816 763.479 137.794 762.652 136.854C760.382 134.226 757.625 132.185 754.573 130.326C754.424 130.724 754.284 131.041 754.202 131.353C751.738 140.866 749.16 150.352 746.869 159.904C745.828 164.241 742.714 166.088 739.502 166.484C735.076 167.018 731.084 165.915 727.828 162.817C725.77 160.859 724.55 158.499 725.451 155.491C725.72 154.551 726.21 153.689 726.881 152.979C727.552 152.268 728.383 151.731 729.305 151.413C735.227 149.3 740.461 150.497 744.82 155.131C744.956 155.214 745.102 155.281 745.255 155.33Z" fill="#F29C18"/>
<path d="M933.294 60.876C933.294 60.876 928.767 73.334 918.454 71.6705C928.316 75.1024 926.388 88.2216 926.388 88.2216C926.388 88.2216 930.915 75.7589 941.229 77.4224C931.362 73.9893 933.294 60.876 933.294 60.876Z" fill="#1BB5E6"/>
<path d="M433.745 0C433.745 0 432.407 13.1872 422 14.0997C432.402 15.0123 433.745 28.2042 433.745 28.2042C433.745 28.2042 435.083 15.0123 445.49 14.0997C435.083 13.1872 433.745 0 433.745 0Z" fill="#AB27F2"/>
<path d="M203.932 140.019C203.932 140.019 206.881 156.2 194.851 160.85C207.503 158.378 213.635 173.647 213.635 173.647C213.635 173.647 210.683 157.461 222.714 152.811C210.056 155.284 203.932 140.019 203.932 140.019Z" fill="#F2E318"/>
<path d="M871.727 225.044C871.727 225.044 866.247 234.226 858.242 231.31C865.622 235.559 862.123 245.667 862.123 245.667C862.123 245.667 867.604 236.482 875.609 239.398C868.225 235.147 871.727 225.044 871.727 225.044Z" fill="#F2DE18"/>
<path d="M941.402 479.483C941.402 479.483 936.69 491.872 926.402 490.055C936.212 493.634 934.088 506.723 934.088 506.723C934.088 506.723 938.801 494.329 949.089 496.146C939.275 492.566 941.402 479.483 941.402 479.483Z" fill="#F23718"/>
<path d="M184.997 445.823C184.997 445.823 188.175 458.691 178.683 463.053C188.785 460.411 194.489 472.382 194.489 472.382C194.489 472.382 191.31 459.509 200.803 455.147C190.696 457.79 184.997 445.823 184.997 445.823Z" fill="#F28E18"/>
<path d="M13.7451 149C13.7451 149 12.4069 162.187 2 163.1C12.4022 164.012 13.7451 177.204 13.7451 177.204C13.7451 177.204 15.0831 164.012 25.4901 163.1C15.0831 162.187 13.7451 149 13.7451 149Z" fill="#1BB5E6"/>
<defs>
<linearGradient id="paint0_linear_26_2" x1="2" y1="753.5" x2="964" y2="753.5" gradientUnits="userSpaceOnUse">
<stop stop-color="#F21818"/>
<stop offset="0.174677" stop-color="#F29B18"/>
<stop offset="0.348958" stop-color="#F2EA18"/>
<stop offset="0.593873" stop-color="#44F218"/>
<stop offset="0.776599" stop-color="#18B1F2"/>
<stop offset="0.996946" stop-color="#BA18F2"/>
</linearGradient>
<radialGradient id="paint1_radial_26_2" cx="0" cy="0" r="1" gradientUnits="userSpaceOnUse" gradientTransform="translate(769.193 366.928) rotate(56.22) scale(51.4462 51.4462)">
<stop offset="0.37" stop-color="#FFFDF8"/>
<stop offset="0.59" stop-color="#FCFBF7"/>
<stop offset="0.75" stop-color="#F3F6F5"/>
<stop offset="0.88" stop-color="#E4ECF1"/>
<stop offset="1" stop-color="#CEDFEB"/>
</radialGradient>
<radialGradient id="paint2_radial_26_2" cx="0" cy="0" r="1" gradientUnits="userSpaceOnUse" gradientTransform="translate(766.895 338.514) rotate(56.23) scale(69.2959 69.2959)">
<stop stop-color="#00C0FF"/>
<stop offset="0.3" stop-color="#00BDFF"/>
<stop offset="0.51" stop-color="#00B4FF"/>
<stop offset="0.7" stop-color="#00A4FF"/>
<stop offset="0.87" stop-color="#008FFF"/>
<stop offset="1" stop-color="#0077FF"/>
</radialGradient>
<radialGradient id="paint3_radial_26_2" cx="0" cy="0" r="1" gradientUnits="userSpaceOnUse" gradientTransform="translate(764.375 330.934) rotate(56.23) scale(30.4864)">
<stop stop-color="#00C0FF"/>
<stop offset="0.3" stop-color="#00BDFF"/>
<stop offset="0.51" stop-color="#00B4FF"/>
<stop offset="0.7" stop-color="#00A4FF"/>
<stop offset="0.87" stop-color="#008FFF"/>
<stop offset="1" stop-color="#0077FF"/>
</radialGradient>
<radialGradient id="paint4_radial_26_2" cx="0" cy="0" r="1" gradientUnits="userSpaceOnUse" gradientTransform="translate(775.325 334.515) rotate(56.23) scale(39.2448 39.2448)">
<stop stop-color="#00C0FF"/>
<stop offset="0.3" stop-color="#00BDFF"/>
<stop offset="0.51" stop-color="#00B4FF"/>
<stop offset="0.7" stop-color="#00A4FF"/>
<stop offset="0.87" stop-color="#008FFF"/>
<stop offset="1" stop-color="#0077FF"/>
</radialGradient>
<radialGradient id="paint5_radial_26_2" cx="0" cy="0" r="1" gradientUnits="userSpaceOnUse" gradientTransform="translate(768.927 337.698) rotate(-93.2602) scale(10.9304 11.6928)">
<stop offset="0.13" stop-color="#7A7A7A"/>
<stop offset="0.17" stop-color="#878787"/>
<stop offset="0.35" stop-color="#B2B2B2"/>
<stop offset="0.51" stop-color="#D4D4D4"/>
<stop offset="0.67" stop-color="#ECECEC"/>
<stop offset="0.81" stop-color="#FAFAFA"/>
<stop offset="0.94" stop-color="white"/>
</radialGradient>
<radialGradient id="paint6_radial_26_2" cx="0" cy="0" r="1" gradientUnits="userSpaceOnUse" gradientTransform="translate(766.566 333.867) rotate(56.23) scale(9.10268 9.10268)">
<stop offset="0.37" stop-color="#FFFDF8"/>
<stop offset="0.59" stop-color="#FCFBF7"/>
<stop offset="0.75" stop-color="#F3F6F5"/>
<stop offset="0.88" stop-color="#E4ECF1"/>
<stop offset="1" stop-color="#CEDFEB"/>
</radialGradient>
<radialGradient id="paint7_radial_26_2" cx="0" cy="0" r="1" gradientUnits="userSpaceOnUse" gradientTransform="translate(769.882 339.569) rotate(56.22) scale(80.6323 80.6323)">
<stop offset="0.45" stop-color="#FFFDF8"/>
<stop offset="0.57" stop-color="#FCFCF8"/>
<stop offset="0.65" stop-color="#F3F8F7"/>
<stop offset="0.72" stop-color="#E4F1F6"/>
<stop offset="0.78" stop-color="#CEE7F5"/>
<stop offset="0.84" stop-color="#B2DAF3"/>
<stop offset="0.9" stop-color="#90CAF1"/>
<stop offset="0.95" stop-color="#67B7EE"/>
<stop offset="1" stop-color="#37A1EB"/>
</radialGradient>
<radialGradient id="paint8_radial_26_2" cx="0" cy="0" r="1" gradientUnits="userSpaceOnUse" gradientTransform="translate(663.124 332.856) rotate(-90) scale(10.7303 17.8838)">
<stop offset="0.25" stop-color="white"/>
<stop offset="0.41" stop-color="#BDBDBD"/>
<stop offset="0.63" stop-color="#6D6D6D"/>
<stop offset="0.8" stop-color="#323232"/>
<stop offset="0.93" stop-color="#0E0E0E"/>
<stop offset="1"/>
</radialGradient>
</defs>
</svg>
